<svg width="33" height="33" viewBox="0 0 33 33" fill="none" xmlns="http://www.w3.org/2000/svg">
<path d="M27.4622 16.2549L28.1693 15.5478L28.8764 16.2549L28.1693 16.962L27.4622 16.2549ZM7.46216 17.2549C6.90987 17.2549 6.46216 16.8072 6.46216 16.2549C6.46216 15.7026 6.90987 15.2549 7.46216 15.2549V16.2549V17.2549ZM19.4622 8.25488L20.1693 7.54778L28.1693 15.5478L27.4622 16.2549L26.7551 16.962L18.7551 8.96199L19.4622 8.25488ZM27.4622 16.2549L28.1693 16.962L20.1693 24.962L19.4622 24.2549L18.7551 23.5478L26.7551 15.5478L27.4622 16.2549ZM27.4622 16.2549V17.2549H7.46216V16.2549V15.2549H27.4622V16.2549Z" fill="white"/>
</svg>
