<svg width="24" height="25" viewBox="0 0 24 25" fill="none" xmlns="http://www.w3.org/2000/svg">
    <path
        d="M6.67962 4.07038L7.29289 3.45711C7.68342 3.06658 8.31658 3.06658 8.70711 3.45711L11.2929 6.04289C11.6834 6.43342 11.6834 7.06658 11.2929 7.45711L9.50048 9.24952C9.2016 9.5484 9.1275 10.005 9.31653 10.3831C10.4093 12.5686 12.1814 14.3407 14.3669 15.4335C14.745 15.6225 15.2016 15.5484 15.5005 15.2495L17.2929 13.4571C17.6834 13.0666 18.3166 13.0666 18.7071 13.4571L21.2929 16.0429C21.6834 16.4334 21.6834 17.0666 21.2929 17.4571L20.6796 18.0704C18.5683 20.1817 15.2257 20.4193 12.837 18.6277L11.6286 17.7214C9.88504 16.4138 8.33622 14.865 7.02857 13.1214L6.12226 11.913C4.33072 9.5243 4.56827 6.18173 6.67962 4.07038Z"
        fill="#151515" />
</svg>