<svg width="48" height="48" viewBox="0 0 48 48" fill="none" xmlns="http://www.w3.org/2000/svg">
<path d="M24 4C13 4 4 13 4 24C4 35 13 44 24 44C35 44 44 35 44 24C44 13 35 4 24 4Z" fill="#1976D2"/>
<path d="M25.1999 33.2001C16.1999 33.2001 11.0999 27.1 10.8999 16.8H15.3999C15.4999 24.3 18.8999 27.5 21.4999 28.1V16.8H25.6999V23.3C28.2999 23 30.9999 20.1 31.8999 16.8H36.0999C35.3999 20.8 32.3999 23.8 30.2999 25C32.3999 26 35.7999 28.6 36.9999 33.2001H32.2999C31.2999 30.1 28.7999 27.7 25.4999 27.3V33.2001H25.1999Z" fill="white"/>
</svg>
