<svg width="48" height="48" viewBox="0 0 48 48" fill="none" xmlns="http://www.w3.org/2000/svg">
<path fill-rule="evenodd" clip-rule="evenodd" d="M4.86792 43.303L7.56192 33.468C5.89992 30.59 5.02592 27.324 5.02692 23.979C5.03192 13.514 13.5479 5 24.0139 5C29.0929 5.002 33.8589 6.979 37.4439 10.566C41.0279 14.154 43.0019 18.922 42.9999 23.994C42.9959 34.459 34.4779 42.974 24.0139 42.974H24.0059C20.8289 42.973 17.7059 42.176 14.9329 40.663L4.86792 43.303Z" fill="white"/>
<path fill-rule="evenodd" clip-rule="evenodd" d="M4.86797 43.803C4.73597 43.803 4.60797 43.751 4.51297 43.655C4.38797 43.528 4.33897 43.343 4.38597 43.172L7.02497 33.536C5.38897 30.63 4.52597 27.33 4.52797 23.98C4.53197 13.238 13.273 4.5 24.014 4.5C29.224 4.502 34.119 6.531 37.798 10.213C41.477 13.896 43.502 18.79 43.5 23.994C43.496 34.735 34.754 43.474 24.014 43.474C20.825 43.473 17.67 42.686 14.87 41.197L4.99497 43.786C4.95297 43.798 4.91097 43.803 4.86797 43.803Z" fill="white"/>
<path fill-rule="evenodd" clip-rule="evenodd" d="M24.0141 5C29.0931 5.002 33.8591 6.979 37.4441 10.566C41.0281 14.154 43.0021 18.922 43.0001 23.994C42.9961 34.459 34.4781 42.974 24.0141 42.974H24.0061C20.8291 42.973 17.7061 42.176 14.9331 40.663L4.86809 43.303L7.56209 33.468C5.90009 30.59 5.02609 27.324 5.02709 23.979C5.03209 13.514 13.5481 5 24.0141 5ZM24.0141 4C12.9981 4 4.03209 12.962 4.02709 23.979C4.02609 27.346 4.87609 30.664 6.48809 33.601L3.90309 43.04C3.80909 43.385 3.90509 43.753 4.15709 44.007C4.34709 44.199 4.60409 44.304 4.86809 44.304C4.95309 44.304 5.03809 44.293 5.12209 44.271L14.8091 41.731C17.6371 43.199 20.8071 43.974 24.0061 43.975C35.0301 43.975 43.9961 35.012 44.0011 23.995C44.0031 18.656 41.9261 13.636 38.1531 9.86C34.3781 6.083 29.3571 4.002 24.0141 4Z" fill="#CFD8DC"/>
<path fill-rule="evenodd" clip-rule="evenodd" d="M35.1759 12.8321C32.1959 9.85005 28.2349 8.20705 24.0189 8.20605C15.3149 8.20605 8.23593 15.2821 8.23193 23.9801C8.23093 26.9611 9.06493 29.8631 10.6449 32.3761L11.0209 32.9731L9.42593 38.7941L15.3989 37.2281L15.9759 37.5701C18.3979 39.0081 21.1759 39.7681 24.0079 39.7691H24.0139C32.7119 39.7691 39.7909 32.6921 39.7939 23.9931C39.7949 19.7781 38.1559 15.8141 35.1759 12.8321Z" fill="#40C351"/>
<path fill-rule="evenodd" clip-rule="evenodd" d="M19.268 16.0449C18.913 15.2549 18.539 15.2389 18.2 15.2249C17.923 15.2129 17.607 15.2139 17.291 15.2139C16.975 15.2139 16.461 15.3329 16.026 15.8079C15.591 16.2829 14.365 17.4299 14.365 19.7639C14.365 22.0979 16.065 24.3539 16.302 24.6699C16.539 24.9859 19.584 29.9289 24.406 31.8309C28.413 33.4109 29.229 33.0969 30.099 33.0179C30.969 32.9389 32.906 31.8709 33.301 30.7629C33.696 29.6549 33.696 28.7059 33.578 28.5079C33.459 28.3099 33.143 28.1919 32.669 27.9539C32.195 27.7159 29.862 26.5689 29.427 26.4109C28.992 26.2529 28.676 26.1739 28.359 26.6489C28.043 27.1229 27.134 28.1919 26.857 28.5079C26.58 28.8249 26.303 28.8649 25.829 28.6269C25.355 28.3889 23.827 27.8889 22.014 26.2729C20.604 25.0159 19.652 23.4629 19.375 22.9879C19.098 22.5139 19.345 22.2569 19.583 22.0199C19.796 21.8069 20.057 21.4659 20.295 21.1889C20.532 20.9119 20.611 20.7139 20.769 20.3979C20.927 20.0809 20.848 19.8039 20.729 19.5669C20.612 19.3289 19.69 16.9829 19.268 16.0449Z" fill="white"/>
</svg>
