<svg width="101" height="100" viewBox="0 0 101 100" fill="none" xmlns="http://www.w3.org/2000/svg">
<path d="M84.4333 53.3C86.8333 51.3 88.3333 48.3 88.3333 45V42H89.6333C91.1333 42 92.3333 40.8 92.3333 39.3V38.8C92.3333 37.5 91.5332 36.5 90.3333 36.2V35C90.3333 31.5 88.9333 28.3 86.5332 25.8C86.4333 25.7 86.4333 25.7 86.3333 25.6V25C86.3333 24.4 85.9333 24 85.3333 24C85.0332 24 84.8333 24.1 84.6333 24.3C83.6333 23.6 82.5332 23.1 81.3333 22.7V22C81.3333 20.9 80.4333 20 79.3333 20H75.3333C74.2333 20 73.3333 20.9 73.3333 22V22.6C72.1333 23 71.0332 23.5 70.0332 24.2C69.8333 24.1 69.6333 24 69.3333 24C68.7333 24 68.3333 24.4 68.3333 25V25.6C65.8333 28 64.3333 31.3 64.3333 35V36.1C63.5333 36.3 62.9333 36.9 62.5333 37.6C61.9333 35.8 60.8333 34.2 59.5333 32.8C59.4333 32.7 59.4333 32.7 59.3333 32.6V32C59.3333 31.4 58.9333 31 58.3333 31C58.0333 31 57.8333 31.1 57.6333 31.3C56.6333 30.6 55.5333 30.1 54.3333 29.7V29C54.3333 27.9 53.4333 27 52.3333 27H48.3333C47.2333 27 46.3333 27.9 46.3333 29V29.6C45.1333 30 44.0333 30.5 43.0333 31.2C42.8333 31.1 42.6333 31 42.3333 31C41.7333 31 41.3333 31.4 41.3333 32V32.6C39.9333 34 38.7332 35.7 38.1333 37.6C37.8333 36.9 37.1333 36.3 36.3333 36.1V35C36.3333 31.5 34.9333 28.3 32.5333 25.8C32.4333 25.7 32.4333 25.7 32.3333 25.6V25C32.3333 24.4 31.9333 24 31.3333 24C31.0333 24 30.8333 24.1 30.6333 24.3C29.6333 23.6 28.5333 23.1 27.3333 22.7V22C27.3333 20.9 26.4333 20 25.3333 20H21.3333C20.2333 20 19.3333 20.9 19.3333 22V22.6C18.1333 23 17.0333 23.5 16.0333 24.2C15.8333 24.1 15.6333 24 15.3333 24C14.7333 24 14.3333 24.4 14.3333 25V25.6C11.8333 28 10.3333 31.3 10.3333 35V36.1C9.13325 36.4 8.33325 37.5 8.33325 38.7V39.2C8.33325 40.7 9.53325 41.9 11.0333 41.9H12.3333V44.9C12.3333 48.2 13.8333 51.2 16.2333 53.2C9.43325 54.8 4.33325 60.9 4.33325 68V72C4.33325 72.6 4.73325 73 5.33325 73H31.5333C31.4333 73.7 31.3333 74.3 31.3333 75V79C31.3333 79.6 31.7333 80 32.3333 80H68.3333C68.9333 80 69.3333 79.6 69.3333 79V75C69.3333 74.3 69.2333 73.7 69.1333 73H95.3333C95.9333 73 96.3333 72.6 96.3333 72V68C96.3333 60.9 91.2333 54.8 84.4333 53.3ZM86.3333 45C86.3333 50 82.3333 54 77.3333 54C72.3333 54 68.3333 50 68.3333 45V42H86.3333V45ZM77.3333 27C79.0332 27 80.3333 28.3 80.3333 30C80.3333 31.7 79.0332 33 77.3333 33C75.6333 33 74.3333 31.7 74.3333 30C74.3333 28.3 75.6333 27 77.3333 27ZM79.3333 22V25.4C78.7333 25.1 78.0332 25 77.3333 25C76.6333 25 75.9333 25.2 75.3333 25.4V22H79.3333ZM66.3333 35C66.3333 32.7 67.0333 30.5 68.3333 28.7V33C68.3333 33.6 68.7333 34 69.3333 34C69.9333 34 70.3333 33.6 70.3333 33V26.5C71.2333 25.8 72.2333 25.2 73.3333 24.7V27C72.7333 27.8 72.3333 28.9 72.3333 30C72.3333 32.8 74.5332 35 77.3333 35C80.1333 35 82.3333 32.8 82.3333 30C82.3333 28.9 81.9333 27.9 81.3333 27V24.8C82.4333 25.2 83.4333 25.8 84.3333 26.6V33C84.3333 33.6 84.7333 34 85.3333 34C85.9333 34 86.3333 33.6 86.3333 33V28.7C87.6333 30.5 88.3333 32.7 88.3333 35V36H66.3333V35ZM64.3333 38.7C64.3333 38.3 64.6332 38 65.0332 38H65.3333H89.3333H89.6333C90.0333 38 90.3333 38.3 90.3333 38.7V39.2C90.3333 39.6 90.0333 39.9 89.6333 39.9H87.3333H67.3333H65.0332C64.6332 39.9 64.3333 39.6 64.3333 39.2V38.7ZM65.0332 42H66.3333V45C66.3333 48.3 67.8333 51.3 70.2333 53.3C65.8333 54.2 62.1333 57.1 60.0333 61.1C59.2333 60.8 58.4333 60.5 57.5333 60.3C59.9333 58.3 61.4333 55.3 61.4333 52V49H62.7333C64.2333 49 65.4333 47.8 65.4333 46.3V45.8C65.4333 44.5 64.6333 43.5 63.4333 43.2V42C63.4333 41.8 63.4333 41.6 63.4333 41.3C63.7332 41.7 64.4333 42 65.0332 42ZM42.3333 62.6V65C42.3333 67.8 44.5333 70 47.3333 70H53.3333C56.1333 70 58.3333 67.8 58.3333 65V62.6C59.4333 62.9 60.4333 63.4 61.3333 64V78H39.3333V64.1C40.2333 63.5 41.2333 63 42.3333 62.6ZM38.0333 45H38.3333H62.3333H62.6333C63.0333 45 63.3333 45.3 63.3333 45.7V46.2C63.3333 46.6 63.0333 46.9 62.6333 46.9H60.3333H40.3333H38.0333C37.6333 46.9 37.3333 46.6 37.3333 46.2V45.7C37.3333 45.3 37.6333 45 38.0333 45ZM41.3333 49H59.3333V52C59.3333 55.5 57.2333 58.6 54.3333 60.1C53.0333 60.7 51.7333 61 50.3333 61C45.3333 61 41.3333 57 41.3333 52V49ZM50.3333 63C51.9333 63 53.4333 62.6 54.8333 62C55.3333 62 55.8333 62.1 56.3333 62.1V65C56.3333 66.7 55.0333 68 53.3333 68H47.3333C45.6333 68 44.3333 66.7 44.3333 65V62.2C44.8333 62.1 45.3333 62.1 45.8333 62.1C47.2333 62.6 48.7333 63 50.3333 63ZM50.3333 34C52.0333 34 53.3333 35.3 53.3333 37C53.3333 38.7 52.0333 40 50.3333 40C48.6333 40 47.3333 38.7 47.3333 37C47.3333 35.3 48.6333 34 50.3333 34ZM52.3333 29V32.4C51.7333 32.1 51.0333 32 50.3333 32C49.6333 32 48.9333 32.2 48.3333 32.4V29H52.3333ZM39.3333 42C39.3333 39.7 40.0333 37.5 41.3333 35.7V40C41.3333 40.6 41.7333 41 42.3333 41C42.9333 41 43.3333 40.6 43.3333 40V33.5C44.2333 32.8 45.2333 32.2 46.3333 31.7V34C45.7333 34.8 45.3333 35.9 45.3333 37C45.3333 39.8 47.5333 42 50.3333 42C53.1333 42 55.3333 39.8 55.3333 37C55.3333 35.9 54.9333 34.9 54.3333 34V31.8C55.4333 32.2 56.4333 32.8 57.3333 33.6V40C57.3333 40.6 57.7333 41 58.3333 41C58.9333 41 59.3333 40.6 59.3333 40V35.7C60.6333 37.5 61.3333 39.7 61.3333 42V43H39.3333V42ZM37.3333 42V43.1C36.1333 43.4 35.3333 44.5 35.3333 45.7V46.2C35.3333 47.7 36.5333 48.9 38.0333 48.9H39.3333V51.9C39.3333 55.2 40.8333 58.2 43.2333 60.2C42.3333 60.4 41.5333 60.7 40.7333 61C38.6333 57 34.9333 54.1 30.5333 53.2C32.9333 51.2 34.4333 48.2 34.4333 44.9V41.9H35.7333C36.4333 41.9 37.0333 41.6 37.5333 41.2C37.3333 41.6 37.3333 41.8 37.3333 42ZM23.3333 27C25.0333 27 26.3333 28.3 26.3333 30C26.3333 31.7 25.0333 33 23.3333 33C21.6333 33 20.3333 31.7 20.3333 30C20.3333 28.3 21.6333 27 23.3333 27ZM25.3333 22V25.4C24.7333 25.1 24.0333 25 23.3333 25C22.6333 25 21.9333 25.2 21.3333 25.4V22H25.3333ZM12.3333 35C12.3333 32.7 13.0333 30.5 14.3333 28.7V33C14.3333 33.6 14.7333 34 15.3333 34C15.9333 34 16.3333 33.6 16.3333 33V26.5C17.2333 25.8 18.2333 25.2 19.3333 24.7V27C18.7333 27.8 18.3333 28.9 18.3333 30C18.3333 32.8 20.5333 35 23.3333 35C26.1333 35 28.3333 32.8 28.3333 30C28.3333 28.9 27.9333 27.9 27.3333 27V24.8C28.4333 25.2 29.4333 25.8 30.3333 26.6V33C30.3333 33.6 30.7333 34 31.3333 34C31.9333 34 32.3333 33.6 32.3333 33V28.7C33.6333 30.5 34.3333 32.7 34.3333 35V36H12.3333V35ZM10.3333 39.3V38.8C10.3333 38.4 10.6333 38.1 11.0333 38.1H11.3333H35.3333H35.6333C36.0333 38.1 36.3333 38.4 36.3333 38.8V39.3C36.3333 39.7 36.0333 40 35.6333 40H33.3333H13.3333H11.0333C10.6333 40 10.3333 39.7 10.3333 39.3ZM14.3333 45V42H32.3333V45C32.3333 50 28.3333 54 23.3333 54C18.3333 54 14.3333 50 14.3333 45ZM6.33325 71V68C6.33325 61.1 11.9333 55.3 18.8333 55C20.2333 55.6 21.7333 56 23.3333 56C24.9333 56 26.4333 55.6 27.8333 55C32.5333 55.2 36.7333 57.9 38.8333 62C35.4333 64 32.9333 67.2 31.8333 71H6.33325ZM33.3333 75C33.3333 71.4 34.8333 68.1 37.3333 65.7V78H33.3333V75ZM67.3333 78H63.3333V65.7C65.8333 68.1 67.3333 71.4 67.3333 75V78ZM94.3333 71H68.7333C67.6333 67.2 65.1333 64 61.7333 62C63.8333 57.9 68.1333 55.2 72.7333 55C74.1333 55.6 75.6333 56 77.2333 56C78.8333 56 80.3333 55.6 81.7333 55C88.6333 55.3 94.2333 61 94.2333 68V71H94.3333Z" fill="white"/>
</svg>
