<svg width="96" height="96" viewBox="0 0 96 96" fill="none" xmlns="http://www.w3.org/2000/svg">
<path d="M50.2 94C49.9874 93.9995 49.7805 93.9312 49.6093 93.8052C49.4382 93.6791 49.3116 93.5017 49.2481 93.2988C49.1845 93.096 49.1873 92.8781 49.256 92.6769C49.3247 92.4757 49.4557 92.3017 49.63 92.18C49.71 92.12 57.87 86.38 55 81.7C54.9377 81.5912 54.8938 81.473 54.87 81.35L54.73 80.56C54.5345 79.6826 54.424 78.7885 54.4 77.89C52.9296 78.8655 51.7374 80.2058 50.94 81.78C50.862 81.9442 50.7407 82.084 50.5892 82.1845C50.4377 82.2849 50.2616 82.3421 50.08 82.35C49.8981 82.3589 49.7172 82.318 49.5568 82.2316C49.3964 82.1453 49.2627 82.0168 49.17 81.86C49.03 81.63 46.6 77.36 47.17 73.54C45.3 75.13 43.26 78.11 44.36 83.2C44.3912 83.3415 44.3913 83.4882 44.3602 83.6298C44.3291 83.7714 44.2676 83.9045 44.18 84.02C44.0931 84.1364 43.9819 84.2325 43.8541 84.3016C43.7263 84.3707 43.585 84.411 43.44 84.42C42.6336 84.4501 41.8289 84.3244 41.07 84.05C41.5562 85.8942 42.4908 87.5896 43.7906 88.9853C45.0904 90.3811 46.715 91.4338 48.52 92.05C48.7625 92.121 48.9691 92.2811 49.0983 92.4982C49.2275 92.7153 49.2698 92.9733 49.2166 93.2202C49.1634 93.4672 49.0187 93.6849 48.8115 93.8296C48.6044 93.9742 48.3502 94.0351 48.1 94C47.56 94 34.88 92.85 30.82 84.5C28.28 79.28 29.74 72.5 35.14 64.38C35.2549 64.1796 35.4355 64.0252 35.6513 63.9429C35.8671 63.8607 36.1047 63.8556 36.3238 63.9286C36.5429 64.0017 36.7299 64.1483 36.8532 64.3436C36.9764 64.5389 37.0283 64.7708 37 65C37 66.14 37.21 69.39 38.57 70.79C38.7685 71.0007 39.0091 71.1674 39.2761 71.2794C39.543 71.3913 39.8306 71.4461 40.12 71.44C40.41 71.06 40.12 68.85 39.9 67.24C39.05 61 37.68 50.55 47.68 44C47.8425 43.8918 48.0332 43.8335 48.2284 43.8324C48.4237 43.8313 48.615 43.8874 48.7787 43.9937C48.9425 44.1 49.0716 44.252 49.15 44.4308C49.2284 44.6096 49.2527 44.8075 49.22 45C49.22 45.17 46.87 60.8 54.03 65.54C56.5885 61.816 60.3147 59.0504 64.62 57.68C64.7972 57.6284 64.9852 57.6268 65.1633 57.6755C65.3413 57.7242 65.5024 57.8212 65.6287 57.9558C65.755 58.0904 65.8416 58.2573 65.8789 58.4381C65.9162 58.6188 65.9027 58.8064 65.84 58.98C65.84 59.08 62.3 69.2 65.57 77.63C66.1754 78.974 66.4573 80.4413 66.3931 81.914C66.3288 83.3867 65.9202 84.8238 65.2 86.11C61.55 92.3 50.8 93.92 50.34 94H50.2ZM56.81 80.82C59.01 84.66 56.37 88.59 53.92 91.11C57.17 90.11 61.58 88.29 63.47 85.05C64.0419 84.0259 64.3611 82.8801 64.4011 81.7078C64.4412 80.5355 64.2008 79.3707 63.7 78.31C61.03 71.4 62.45 63.72 63.37 60.21C60.0233 61.7567 57.1935 64.2358 55.22 67.35C55.0918 67.5716 54.8834 67.7356 54.6378 67.8082C54.3922 67.8808 54.1281 67.8563 53.9 67.74C46.44 64 46.56 52.07 47 47C40 52.88 41.13 61.27 41.88 67C42.26 69.88 42.51 71.78 41.6 72.82C41.4142 73.03 41.1843 73.1963 40.9267 73.3069C40.6691 73.4176 40.3902 73.4698 40.11 73.46C39.5496 73.4719 38.9929 73.3659 38.4761 73.1488C37.9593 72.9317 37.4939 72.6085 37.11 72.2C36.0977 71.0088 35.4517 69.5501 35.25 68C31.55 74.36 30.67 79.6 32.62 83.63C34.57 87.66 39.26 89.86 43 91C41.6521 89.7083 40.5818 88.1553 39.8545 86.4359C39.1272 84.7165 38.7582 82.8668 38.77 81C38.7877 80.7471 38.9009 80.5103 39.0865 80.3377C39.2722 80.165 39.5165 80.0694 39.77 80.07C40.0235 80.0694 40.2678 80.165 40.4535 80.3377C40.6391 80.5103 40.7523 80.7471 40.77 81C40.83 81.85 41.56 82.22 42.24 82.38C41.8254 79.8707 42.278 77.295 43.5231 75.0774C44.7683 72.8597 46.7317 71.1324 49.09 70.18C49.3012 70.1011 49.5329 70.096 49.7474 70.1653C49.9619 70.2347 50.1467 70.3745 50.2718 70.5621C50.3968 70.7497 50.4548 70.9741 50.4364 71.1988C50.4179 71.4235 50.324 71.6353 50.17 71.8C48.32 73.8 49.33 77.29 50.17 79.31C51.6665 77.3677 53.631 75.8367 55.88 74.86C56.074 74.8055 56.2799 74.8109 56.4708 74.8755C56.6617 74.9401 56.8286 75.0608 56.9496 75.2219C57.0707 75.383 57.1403 75.5769 57.1493 75.7782C57.1583 75.9794 57.1062 76.1788 57 76.35C56.22 77.35 56.31 78.08 56.7 80.2L56.81 80.82Z" fill="white"/>
<path d="M80.3701 20.63H15.6301C14.6223 20.63 13.6557 20.2296 12.9431 19.517C12.2304 18.8044 11.8301 17.8378 11.8301 16.83V5.8C11.8301 4.79218 12.2304 3.82563 12.9431 3.11299C13.6557 2.40036 14.6223 2 15.6301 2H80.3701C81.3779 2 82.3444 2.40036 83.0571 3.11299C83.7697 3.82563 84.1701 4.79218 84.1701 5.8V16.8C84.174 17.3015 84.0787 17.7989 83.8895 18.2634C83.7003 18.7279 83.421 19.1504 83.0677 19.5064C82.7145 19.8625 82.2942 20.1451 81.8312 20.3379C81.3682 20.5307 80.8716 20.63 80.3701 20.63ZM15.6301 4C15.1535 4.00263 14.6972 4.19311 14.3602 4.53011C14.0232 4.86711 13.8327 5.32342 13.8301 5.8V16.8C13.8327 17.2766 14.0232 17.7329 14.3602 18.0699C14.6972 18.4069 15.1535 18.5974 15.6301 18.6H80.3701C80.8467 18.5974 81.303 18.4069 81.64 18.0699C81.977 17.7329 82.1674 17.2766 82.1701 16.8V5.8C82.1674 5.32342 81.977 4.86711 81.64 4.53011C81.303 4.19311 80.8467 4.00263 80.3701 4H15.6301Z" fill="white"/>
<path d="M67.2 32.61H28.8C27.9911 32.6123 27.1994 32.3765 26.5237 31.9319C25.8479 31.4874 25.318 30.8537 25 30.11L20.7 20C20.6346 19.8467 20.6086 19.6795 20.6243 19.5136C20.64 19.3476 20.697 19.1883 20.79 19.05C20.8817 18.9143 21.0053 18.8032 21.1501 18.7265C21.2948 18.6497 21.4562 18.6097 21.62 18.61H74.38C74.5438 18.6097 74.7051 18.6497 74.8498 18.7265C74.9946 18.8032 75.1182 18.9143 75.21 19.05C75.3029 19.1883 75.3599 19.3476 75.3756 19.5136C75.3913 19.6795 75.3653 19.8467 75.3 20L71 30.11C70.6819 30.8537 70.152 31.4874 69.4762 31.9319C68.8005 32.3765 68.0088 32.6123 67.2 32.61ZM23.14 20.61L26.85 29.31C27.0132 29.6914 27.2852 30.0163 27.632 30.2439C27.9788 30.4716 28.3851 30.592 28.8 30.59H67.2C67.6233 30.602 68.0404 30.4863 68.3971 30.258C68.7538 30.0297 69.0335 29.6994 69.2 29.31L72.91 20.61H23.14Z" fill="white"/>
<path d="M51.8399 12.31H44.1599C43.8947 12.31 43.6403 12.2046 43.4528 12.0171C43.2653 11.8296 43.1599 11.5752 43.1599 11.31C43.1599 11.0448 43.2653 10.7904 43.4528 10.6029C43.6403 10.4154 43.8947 10.31 44.1599 10.31H51.8399C52.1051 10.31 52.3595 10.4154 52.547 10.6029C52.7346 10.7904 52.8399 11.0448 52.8399 11.31C52.8399 11.5752 52.7346 11.8296 52.547 12.0171C52.3595 12.2046 52.1051 12.31 51.8399 12.31Z" fill="white"/>
<path d="M72.94 12.31H65.26C64.9948 12.31 64.7404 12.2046 64.5529 12.0171C64.3654 11.8296 64.26 11.5752 64.26 11.31C64.26 11.0448 64.3654 10.7904 64.5529 10.6029C64.7404 10.4154 64.9948 10.31 65.26 10.31H72.94C73.2052 10.31 73.4596 10.4154 73.6471 10.6029C73.8347 10.7904 73.94 11.0448 73.94 11.31C73.94 11.5752 73.8347 11.8296 73.6471 12.0171C73.4596 12.2046 73.2052 12.31 72.94 12.31Z" fill="white"/>
<path d="M31.3799 12.31H23.7C23.4347 12.31 23.1804 12.2046 22.9928 12.0171C22.8053 11.8296 22.7 11.5752 22.7 11.31C22.7 11.0448 22.8053 10.7904 22.9928 10.6029C23.1804 10.4154 23.4347 10.31 23.7 10.31H31.3799C31.6452 10.31 31.8995 10.4154 32.0871 10.6029C32.2746 10.7904 32.38 11.0448 32.38 11.31C32.38 11.5752 32.2746 11.8296 32.0871 12.0171C31.8995 12.2046 31.6452 12.31 31.3799 12.31Z" fill="white"/>
<path d="M48 32.61C47.7348 32.61 47.4804 32.5046 47.2929 32.3171C47.1054 32.1296 47 31.8752 47 31.61V19.61C47 19.3448 47.1054 19.0904 47.2929 18.9029C47.4804 18.7153 47.7348 18.61 48 18.61C48.2652 18.61 48.5196 18.7153 48.7071 18.9029C48.8946 19.0904 49 19.3448 49 19.61V31.61C49 31.8752 48.8946 32.1296 48.7071 32.3171C48.5196 32.5046 48.2652 32.61 48 32.61Z" fill="white"/>
<path d="M60.3101 32.61C60.0448 32.61 59.7905 32.5046 59.603 32.3171C59.4154 32.1296 59.3101 31.8752 59.3101 31.61V19.61C59.3101 19.3448 59.4154 19.0904 59.603 18.9029C59.7905 18.7153 60.0448 18.61 60.3101 18.61C60.5753 18.61 60.8296 18.7153 61.0172 18.9029C61.2047 19.0904 61.3101 19.3448 61.3101 19.61V31.61C61.3101 31.8752 61.2047 32.1296 61.0172 32.3171C60.8296 32.5046 60.5753 32.61 60.3101 32.61Z" fill="white"/>
<path d="M35.6899 32.61C35.4247 32.61 35.1704 32.5046 34.9828 32.3171C34.7953 32.1296 34.6899 31.8752 34.6899 31.61V19.61C34.6899 19.3448 34.7953 19.0904 34.9828 18.9029C35.1704 18.7153 35.4247 18.61 35.6899 18.61C35.9552 18.61 36.2095 18.7153 36.397 18.9029C36.5846 19.0904 36.6899 19.3448 36.6899 19.61V31.61C36.6899 31.8752 36.5846 32.1296 36.397 32.3171C36.2095 32.5046 35.9552 32.61 35.6899 32.61Z" fill="white"/>
</svg>
