<svg width="101" height="100" viewBox="0 0 101 100" fill="none" xmlns="http://www.w3.org/2000/svg">
<path d="M43.6667 84H36.6667V40H38.6667C39.2667 40 39.6667 39.6 39.6667 39V34H75.6667V39C75.6667 39.6 76.0667 40 76.6667 40H79.6667V45.5L67.0667 55.2C66.7668 55.5 66.5667 55.9 66.7667 56.3C66.8667 56.7 67.2667 57 67.6667 57H93.6667C94.0667 57 94.4668 56.7 94.5667 56.3C94.6667 55.9 94.5667 55.4 94.2667 55.2L81.6667 45.5V40H84.6667C85.2667 40 85.6667 39.6 85.6667 39V34H86.6667C87.2667 34 87.6667 33.6 87.6667 33V28V27.9C87.6667 27.8 87.6667 27.7 87.5667 27.7C87.5667 27.7 87.5667 27.6 87.4668 27.6C87.4668 27.5 87.3667 27.5 87.3667 27.4L87.2667 27.3C87.1667 27.3 87.1667 27.2 87.0667 27.2L28.0667 4.2C28.0667 4.2 28.0667 4.2 27.9667 4.2C27.8667 4.2 27.8667 4.2 27.7667 4.2C27.6667 4 27.6667 4 27.5667 4C27.5667 4 27.5667 4 27.4667 4C27.0667 4 26.6667 4.3 26.4667 4.7L26.3667 4.9L15.8667 18.4L7.86675 28.4L7.76675 28.5C7.76675 28.5 7.76675 28.6 7.66675 28.6C7.66675 28.8 7.66675 28.9 7.66675 29V58H5.66675C5.06675 58 4.66675 58.4 4.66675 59V73C4.66675 73.6 5.06675 74 5.66675 74H11.6667C12.2667 74 12.6667 73.6 12.6667 73V59C12.6667 58.4 12.2667 58 11.6667 58H9.66675V31.9L15.8667 39.7C15.9667 39.8 16.0667 39.8 16.0667 39.9C16.0667 39.9 16.1667 39.9 16.1667 40C16.3667 40 16.5667 40 16.6667 40H18.6667V84H11.6667C11.0667 84 10.6667 84.4 10.6667 85V95C10.6667 95.6 11.0667 96 11.6667 96H43.6667C44.2667 96 44.6667 95.6 44.6667 95V85C44.6667 84.4 44.2667 84 43.6667 84ZM70.5667 55L80.6667 47.3L90.7667 55H70.5667ZM10.6667 72H6.66675V60H10.6667V72ZM34.6667 67.3L29.0667 62L34.6667 56.7V67.3ZM27.6667 60.6L21.0667 54.3L27.6667 48L34.2667 54.3L27.6667 60.6ZM20.6667 56.7L26.2667 62L20.6667 67.3V56.7ZM27.6667 63.4L34.2667 69.7L27.6667 75.9L21.0667 69.6L27.6667 63.4ZM34.6667 72V82.6L29.0667 77.3L34.6667 72ZM29.0667 46.7L34.6667 41.4V52L29.0667 46.7ZM27.6667 45.3L22.1667 40H33.1667L27.6667 45.3ZM26.2667 46.7L20.6667 52V41.3L26.2667 46.7ZM26.2667 77.3L20.6667 82.7V72L26.2667 77.3ZM27.6667 78.7L33.1667 84H22.1667L27.6667 78.7ZM38.6667 18H32.3667L29.0667 6.6L78.7667 26L39.6667 21.1V19C39.6667 18.4 39.2667 18 38.6667 18ZM30.3667 18H24.0667L27.4667 8.3L30.3667 18ZM23.6667 20H37.6667V22V32H23.6667V20ZM83.6667 38H77.6667V34H83.6667V38ZM85.6667 32H84.6667H76.6667H39.6667V23.1L85.6667 28.8V32ZM21.9667 18H18.7667L24.5667 10.7L21.9667 18ZM15.6667 21.9V36.2L9.96675 29L15.6667 21.9ZM17.6667 20H21.6667V33C21.6667 33.6 22.0667 34 22.6667 34H37.6667V38H35.6667H19.6667H17.6667V20ZM42.6667 94H12.6667V86H19.6667H35.6667H42.6667V94Z" fill="white"/>
<path d="M95.6667 90H94.6667V63C94.6667 62.4 94.2667 62 93.6667 62H67.6667C67.0667 62 66.6667 62.4 66.6667 63V90H65.6667C65.0667 90 64.6667 90.4 64.6667 91V95C64.6667 95.6 65.0667 96 65.6667 96H95.6667C96.2667 96 96.6667 95.6 96.6667 95V91C96.6667 90.4 96.2667 90 95.6667 90ZM68.6667 64H92.6667V90H86.6667V79C86.6667 78.4 86.2667 78 85.6667 78H75.6667C75.0667 78 74.6667 78.4 74.6667 79V90H68.6667V64ZM84.6667 90H76.6667V80H84.6667V90ZM94.6667 94H66.6667V92H67.6667H75.6667H85.6667H93.6667H94.6667V94Z" fill="white"/>
<path d="M78.6667 75C79.2667 75 79.6667 74.6 79.6667 74V68C79.6667 67.4 79.2667 67 78.6667 67H72.6667C72.0667 67 71.6667 67.4 71.6667 68V74C71.6667 74.6 72.0667 75 72.6667 75H78.6667ZM73.6667 69H77.6667V73H73.6667V69Z" fill="white"/>
<path d="M82.6667 75H88.6667C89.2667 75 89.6667 74.6 89.6667 74V68C89.6667 67.4 89.2667 67 88.6667 67H82.6667C82.0667 67 81.6667 67.4 81.6667 68V74C81.6667 74.6 82.0667 75 82.6667 75ZM83.6667 69H87.6667V73H83.6667V69Z" fill="white"/>
</svg>
