<svg width="101" height="100" viewBox="0 0 101 100" fill="none" xmlns="http://www.w3.org/2000/svg">
<path d="M76.8958 63.2656C76.1394 62.551 75.1718 62.1008 74.1379 61.9824C73.104 61.8641 72.0597 62.0841 71.1614 62.6094L69.5989 56.2656V56.125V56C69.5224 55.8317 69.4166 55.6783 69.2864 55.5469L67.0833 53.3438C66.6478 52.9068 66.1303 52.56 65.5606 52.3234C64.9908 52.0869 64.3799 51.9651 63.763 51.9651C63.146 51.9651 62.5352 52.0869 61.9654 52.3234C61.3956 52.56 60.8782 52.9068 60.4427 53.3438L59.3333 52.2188L80.0208 31.3281C80.2027 31.148 80.4261 31.0153 80.6713 30.9417C80.9165 30.8682 81.176 30.856 81.427 30.9063C83.8079 31.4191 86.2765 31.3602 88.6302 30.7344C91.2996 30.0148 93.7335 28.6071 95.6885 26.6521C97.6435 24.6971 99.0511 22.2632 99.7708 19.5938C100.268 17.736 100.411 15.8013 100.193 13.8906C100.126 13.3029 99.8939 12.7461 99.5233 12.285C99.1526 11.824 98.6588 11.4776 98.0991 11.2861C97.5394 11.0946 96.9369 11.066 96.3615 11.2034C95.7862 11.3408 95.2617 11.6388 94.8489 12.0625L90.5052 16.5C90.3599 16.6465 90.1871 16.7627 89.9967 16.842C89.8063 16.9214 89.6021 16.9622 89.3958 16.9622C89.1895 16.9622 88.9853 16.9214 88.7949 16.842C88.6045 16.7627 88.4317 16.6465 88.2864 16.5L83.9114 12.0781C83.7628 11.9284 83.646 11.7502 83.5682 11.5542C83.4903 11.3582 83.4529 11.1484 83.4583 10.9375C83.4571 10.7282 83.4979 10.5207 83.5785 10.3274C83.659 10.1342 83.7775 9.95907 83.927 9.81252L88.2864 5.37502C88.7029 4.95774 88.9929 4.43115 89.1229 3.85606C89.2528 3.28097 89.2174 2.68085 89.0208 2.12502C88.8217 1.58065 88.4752 1.10239 88.0199 0.743673C87.5646 0.384961 87.0185 0.159941 86.4427 0.0937673C82.7126 -0.320948 78.9579 0.620769 75.8651 2.74673C72.7723 4.87269 70.548 8.04084 69.5989 11.6719C68.9726 14.0202 68.9137 16.4838 69.427 18.8594C69.4956 19.111 69.5 19.3759 69.44 19.6297C69.38 19.8835 69.2573 20.1182 69.0833 20.3125L48.1302 41.1563L22.5677 15.625L21.7552 11.5C21.5759 10.5887 21.13 9.75121 20.4739 9.09377L12.302 0.921892C12.0118 0.631341 11.6672 0.400844 11.2878 0.243581C10.9084 0.0863173 10.5018 0.00537152 10.0911 0.00537152C9.68043 0.00537152 9.27379 0.0863173 8.89442 0.243581C8.51505 0.400844 8.1704 0.631341 7.88017 0.921892L1.25517 7.54689C0.964617 7.83712 0.73412 8.18177 0.576856 8.56114C0.419593 8.94051 0.338647 9.34716 0.338647 9.75783C0.338647 10.1685 0.419593 10.5752 0.576856 10.9545C0.73412 11.3339 0.964617 11.6785 1.25517 11.9688L9.41142 20.1406C10.0689 20.7967 10.9064 21.2426 11.8177 21.4219L15.9427 22.2344L41.4895 47.7969L20.6458 68.75C20.4639 68.9302 20.2405 69.0629 19.9953 69.1364C19.7501 69.21 19.4906 69.2222 19.2395 69.1719C16.8587 68.659 14.3901 68.7179 12.0364 69.3438C9.36763 70.0494 6.93036 71.4422 4.96745 73.3831C3.00454 75.3241 1.58453 77.7456 0.848918 80.4063C0.35214 82.2641 0.20903 84.1987 0.427043 86.1094C0.49715 86.6907 0.729132 87.2405 1.09655 87.6963C1.46397 88.1522 1.95205 88.4956 2.50517 88.6875C3.06454 88.8854 3.6687 88.92 4.24699 88.7872C4.82529 88.6544 5.35382 88.3597 5.77079 87.9375L10.1145 83.5C10.2598 83.3536 10.4326 83.2373 10.623 83.158C10.8134 83.0787 11.0176 83.0378 11.2239 83.0378C11.4302 83.0378 11.6344 83.0787 11.8248 83.158C12.0152 83.2373 12.188 83.3536 12.3333 83.5L16.7552 87.9219C17.0438 88.2129 17.2066 88.6057 17.2083 89.0156C17.2095 89.225 17.1687 89.4325 17.0881 89.6257C17.0076 89.819 16.8891 89.9941 16.7395 90.1406L12.3802 94.5781C11.9607 94.9925 11.6671 95.5171 11.5331 96.0913C11.3992 96.6656 11.4304 97.2659 11.6232 97.8231C11.8161 98.3803 12.1626 98.8716 12.6228 99.2402C13.083 99.6089 13.6381 99.8398 14.2239 99.9063C14.7999 99.9687 15.3789 99.9999 15.9583 100C19.4127 99.9984 22.7693 98.8521 25.5031 96.7403C28.2368 94.6284 30.1937 91.6702 31.0677 88.3281C31.694 85.9798 31.7529 83.5162 31.2395 81.1406C31.171 80.889 31.1666 80.6242 31.2266 80.3704C31.2866 80.1165 31.4093 79.8818 31.5833 79.6875L52.5364 58.8438L53.6614 59.9531C53.2244 60.3886 52.8777 60.9061 52.6411 61.4759C52.4045 62.0456 52.2827 62.6565 52.2827 63.2735C52.2827 63.8904 52.4045 64.5013 52.6411 65.071C52.8777 65.6408 53.2244 66.1583 53.6614 66.5938L55.8645 68.75C55.9959 68.8802 56.1493 68.986 56.3177 69.0625H56.4427H56.5833L62.9114 70.625C62.3171 71.54 62.0605 72.6337 62.186 73.7176C62.3115 74.8014 62.8112 75.8075 63.5989 76.5625L85.7083 98.625C86.5872 99.5028 87.7786 99.9959 89.0208 99.9959C90.263 99.9959 91.4544 99.5028 92.3333 98.625L98.9583 92C99.8361 91.1211 100.329 89.9297 100.329 88.6875C100.329 87.4453 99.8361 86.2539 98.9583 85.375L76.8958 63.2656ZM71.2239 22.4688C71.7717 21.9183 72.1742 21.2402 72.3951 20.4957C72.616 19.7511 72.6485 18.9633 72.4895 18.2031C72.0853 16.3184 72.1282 14.3652 72.6145 12.5C73.1863 10.3489 74.3172 8.38741 75.8925 6.8149C77.4677 5.24238 79.4312 4.11486 81.5833 3.54689C83.0633 3.14372 84.6076 3.03227 86.1302 3.21877L81.7083 7.65627C81.2713 8.09175 80.9246 8.60922 80.688 9.17899C80.4514 9.74877 80.3296 10.3596 80.3296 10.9766C80.3296 11.5935 80.4514 12.2044 80.688 12.7742C80.9246 13.3439 81.2713 13.8614 81.7083 14.2969L86.1302 18.75C86.5657 19.187 87.0831 19.5338 87.6529 19.7703C88.2227 20.0069 88.8335 20.1287 89.4505 20.1287C90.0674 20.1287 90.6783 20.0069 91.2481 19.7703C91.8178 19.5338 92.3353 19.187 92.7708 18.75L97.2083 14.2344C97.3503 15.7527 97.2072 17.2843 96.7864 18.75C96.2114 20.8843 95.0862 22.8302 93.5233 24.3931C91.9603 25.9561 90.0144 27.0813 87.8802 27.6563C86.0012 28.1579 84.0292 28.2007 82.1302 27.7813C81.3676 27.6196 80.5767 27.6507 79.8292 27.8717C79.0816 28.0927 78.401 28.4966 77.8489 29.0469L56.9583 50L50.3333 43.375L71.2239 22.4688ZM29.4427 77.5313C28.8948 78.0818 28.4924 78.7598 28.2715 79.5043C28.0506 80.2489 28.0181 81.0367 28.177 81.7969C28.5812 83.6816 28.5384 85.6348 28.052 87.5C27.4785 89.635 26.3538 91.5816 24.7906 93.1448C23.2274 94.708 21.2808 95.8327 19.1458 96.4063C17.6658 96.8094 16.1215 96.9209 14.5989 96.7344L18.9583 92.2813C19.8361 91.4024 20.3292 90.211 20.3292 88.9688C20.3292 87.7266 19.8361 86.5352 18.9583 85.6563L14.5364 81.25C14.1009 80.813 13.5835 80.4663 13.0137 80.2297C12.4439 79.9931 11.833 79.8713 11.2161 79.8713C10.5992 79.8713 9.98829 79.9931 9.41852 80.2297C8.84874 80.4663 8.33128 80.813 7.89579 81.25L3.53642 85.75C3.37095 84.2417 3.48752 82.7157 3.88017 81.25C4.4496 79.0986 5.57761 77.1359 7.1499 75.5609C8.72219 73.9859 10.6829 72.8544 12.8333 72.2813C14.7134 71.7874 16.6835 71.7446 18.5833 72.1563C19.3459 72.3179 20.1367 72.2869 20.8843 72.0659C21.6318 71.8449 22.3124 71.4409 22.8645 70.8906L43.7083 50L50.3333 56.625L29.4427 77.5313ZM63.5989 55.0781C63.8046 55.077 64.0084 55.1164 64.1988 55.1941C64.3891 55.2719 64.5623 55.3865 64.7083 55.5313L65.8177 56.6406L56.9739 65.4844L55.8645 64.375C55.5735 64.0823 55.4102 63.6862 55.4102 63.2735C55.4102 62.8607 55.5735 62.4646 55.8645 62.1719L62.5052 55.5313C62.7962 55.2426 63.189 55.0799 63.5989 55.0781ZM10.0833 3.12502L12.8333 5.89064L6.22392 12.5L3.45829 9.75002L10.0833 3.12502ZM11.6458 17.9219L7.31767 13.625L13.9583 6.98439L18.2552 11.2969C18.4768 11.5133 18.629 11.7907 18.6927 12.0938L19.4427 15.875L16.2083 19.1094L12.427 18.3594C12.1239 18.2958 11.8466 18.1435 11.6302 17.9219H11.6458ZM18.9427 20.7969L21.1458 18.5938L58.1458 55.5313L55.8645 57.8125L18.9427 20.7969ZM67.1927 59.7031L68.5208 65L65.3958 68.125L60.0989 66.7969L67.1927 59.7031ZM96.7552 89.7813L90.1145 96.4219C89.8218 96.7129 89.4258 96.8763 89.013 96.8763C88.6002 96.8763 88.2042 96.7129 87.9114 96.4219L65.8177 74.3125C65.529 74.0215 65.3663 73.6287 65.3645 73.2188C65.3633 73.0131 65.4028 72.8093 65.4805 72.6189C65.5583 72.4285 65.6729 72.2554 65.8177 72.1094L72.4427 65.4844C72.5887 65.3396 72.7618 65.225 72.9522 65.1473C73.1426 65.0695 73.3464 65.0301 73.552 65.0313C73.962 65.033 74.3548 65.1957 74.6458 65.4844L96.7552 87.5781C96.9 87.7241 97.0145 87.8973 97.0923 88.0877C97.1701 88.278 97.2095 88.4819 97.2083 88.6875C97.2066 89.0974 97.0438 89.4902 96.7552 89.7813Z" fill="white"/>
</svg>
