<svg width="100" height="100" viewBox="0 0 100 100" fill="none" xmlns="http://www.w3.org/2000/svg">
<path d="M58.3334 73.7879C58.3334 78.3334 54.697 81.9697 50.1515 81.9697C45.6061 81.9697 41.9697 78.3334 41.9697 73.7879C41.9697 69.2424 45.6061 65.6061 50.1515 65.6061C54.697 65.6061 58.3334 69.2424 58.3334 73.7879Z" fill="white"/>
<path d="M88.6366 73.7879C88.6366 78.3334 85.0002 81.9697 80.4548 81.9697C75.9093 81.9697 72.2729 78.3334 72.2729 73.7879C72.2729 69.2424 75.9093 65.6061 80.4548 65.6061C85.0002 65.6061 88.6366 69.2424 88.6366 73.7879Z" fill="white"/>
<path d="M97.1213 95.9091L95.0001 90C94.091 86.6667 91.2122 84.394 87.7274 84.394H73.1819C69.8486 84.394 66.8183 86.6667 65.9092 89.8485L65.1516 91.6667L64.6971 90.1515C63.788 86.8182 60.9092 84.5455 57.4244 84.5455H42.8789C42.4244 84.5455 41.8183 84.5455 41.3638 84.697V52.7273H87.2728C91.5153 52.7273 94.8486 49.3939 94.8486 45.1515V8.9394C94.8486 4.8485 91.5153 1.36365 87.2728 1.36365H12.8789C8.63648 1.36365 5.30315 4.69698 5.30315 8.9394V45.1515C5.30315 49.3939 8.63648 52.7273 12.8789 52.7273H15.9092V66.5152C13.3335 67.8788 11.5153 70.6061 11.5153 73.7879C11.5153 78.3333 15.1516 81.9697 19.6971 81.9697C24.2425 81.9697 27.8789 78.3333 27.8789 73.7879C27.8789 69.2424 24.2425 65.6061 19.6971 65.6061C19.3941 65.6061 19.091 65.6061 18.788 65.6061V46.0606C18.788 41.5152 22.5759 37.7273 27.1213 37.7273H33.6365C39.2425 37.7273 48.0304 35.9091 53.1819 33.6364L54.8486 32.8788C55.6062 32.5758 56.3638 32.5758 57.1213 32.8788C57.8789 33.1818 58.485 33.7879 58.6365 34.5455C59.091 35.9091 58.485 37.4243 57.1213 38.0303L41.8183 41.9697C39.5456 42.5758 37.8789 44.697 37.8789 46.9697V50.6061C37.8789 50.7576 37.8789 50.9091 37.8789 51.0606C37.8789 51.2121 37.8789 51.3636 37.8789 51.3636V85.9091C36.6668 86.8182 35.6062 88.3333 35.3031 89.8485L34.8486 91.6667L34.2425 89.8485C33.3335 86.5152 30.4547 84.2424 26.9698 84.2424H12.5759C9.24254 84.2424 6.21224 86.5152 5.30315 89.697L3.03042 96.2121C3.03042 96.5152 2.87891 96.6667 2.87891 96.9697C2.87891 97.8788 3.63648 98.4849 4.39406 98.4849H34.8486C35.0001 98.6364 35.3032 98.6364 35.4547 98.6364C35.6062 98.6364 35.7577 98.6364 35.9092 98.4849C35.9092 98.4849 35.9092 98.4849 36.0607 98.4849L95.4547 98.3333C96.0607 98.3333 96.6668 97.8788 96.8183 97.2727C97.1213 96.9697 97.2728 96.5152 97.1213 95.9091ZM41.3638 47.1212C41.3638 46.0606 42.1213 45.303 43.0304 45L58.485 41.0606C58.485 41.0606 58.6365 41.0606 58.6365 40.9091C61.0607 39.8485 62.4244 37.4243 62.1213 34.8485L80.6062 22.4243C81.3638 21.9697 81.5153 21.0606 81.0607 20.303C80.6062 19.5455 79.6971 19.394 78.9395 19.8485L60.9092 31.9697C60.3031 31.2121 59.5456 30.6061 58.6365 30.1515C57.1213 29.5455 55.3031 29.5455 53.788 30.1515L52.1213 30.9091C47.4244 33.0303 38.9395 34.697 33.788 34.697H27.2728C21.0607 34.697 15.9092 39.8485 15.9092 46.0606V49.697H12.8789C10.3031 49.697 8.33345 47.5758 8.33345 45.1515V8.9394C8.33345 6.51516 10.3031 4.39395 12.8789 4.39395H87.2728C89.6971 4.39395 91.8183 6.51516 91.8183 8.9394V45.1515C91.8183 47.5758 89.6971 49.697 87.2728 49.697H41.3638V47.1212Z" fill="white"/>
<path d="M40.7577 23.0304C40.7577 28.0304 36.6668 32.1213 31.6668 32.1213C26.6668 32.1213 22.5759 28.0304 22.5759 23.0304C22.5759 18.0304 26.6668 13.9395 31.6668 13.9395C36.6668 13.9395 40.7577 18.0304 40.7577 23.0304Z" fill="white"/>
</svg>
